<svg width="484" height="148" viewBox="0 0 484 148" fill="none" xmlns="http://www.w3.org/2000/svg">
<path d="M50.9777 50.5C49.1777 50.5 47.5444 50.1333 46.0777 49.4C44.6444 48.6333 43.4944 47.5833 42.6277 46.25C41.7611 44.9167 41.2777 43.4 41.1777 41.7V34.55C41.2777 32.8167 41.7611 31.3 42.6277 30C43.5277 28.6667 44.6944 27.6333 46.1277 26.9C47.5944 26.1333 49.2111 25.75 50.9777 25.75C53.1444 25.75 55.0944 26.3 56.8277 27.4C58.5944 28.5 59.9777 29.9833 60.9777 31.85C61.9777 33.7167 62.4777 35.8167 62.4777 38.15C62.4777 40.4833 61.9777 42.5833 60.9777 44.45C59.9777 46.3167 58.5944 47.8 56.8277 48.9C55.0944 49.9667 53.1444 50.5 50.9777 50.5ZM50.2277 46.25C51.7277 46.25 53.0444 45.9 54.1777 45.2C55.3111 44.5 56.2111 43.55 56.8777 42.35C57.5444 41.1167 57.8777 39.7 57.8777 38.1C57.8777 36.5333 57.5444 35.1333 56.8777 33.9C56.2111 32.6667 55.3111 31.7167 54.1777 31.05C53.0444 30.35 51.7444 30 50.2777 30C48.7777 30 47.4611 30.35 46.3277 31.05C45.1944 31.7167 44.3111 32.6667 43.6777 33.9C43.0444 35.1333 42.7277 36.55 42.7277 38.15C42.7277 39.7167 43.0277 41.1167 43.6277 42.35C44.2611 43.55 45.1444 44.5 46.2777 45.2C47.4444 45.9 48.7611 46.25 50.2277 46.25ZM38.4777 50V14.3H42.9777V32.05L42.1277 37.8L42.9777 43.6V50H38.4777ZM70.1293 50V26.25H74.6293V50H70.1293ZM72.3793 21.5C71.546 21.5 70.8626 21.2333 70.3293 20.7C69.796 20.1333 69.5293 19.4333 69.5293 18.6C69.5293 17.8 69.796 17.1333 70.3293 16.6C70.8626 16.0333 71.546 15.75 72.3793 15.75C73.2126 15.75 73.896 16.0333 74.4293 16.6C74.9626 17.1333 75.2293 17.8 75.2293 18.6C75.2293 19.4333 74.9626 20.1333 74.4293 20.7C73.896 21.2333 73.2126 21.5 72.3793 21.5ZM83.7609 50V26.25H88.2609V50H83.7609ZM88.2609 36.45L86.5609 35.7C86.5609 32.6667 87.2609 30.25 88.6609 28.45C90.0609 26.65 92.0776 25.75 94.7109 25.75C95.9109 25.75 96.9943 25.9667 97.9609 26.4C98.9276 26.8 99.8276 27.4833 100.661 28.45L97.7109 31.5C97.2109 30.9667 96.6609 30.5833 96.0609 30.35C95.4609 30.1167 94.7609 30 93.9609 30C92.2943 30 90.9276 30.5333 89.8609 31.6C88.7943 32.6667 88.2609 34.2833 88.2609 36.45ZM115.398 60.45C112.965 60.45 110.798 60 108.898 59.1C107.031 58.2 105.531 56.9333 104.398 55.3L107.298 52.35C108.265 53.5833 109.415 54.5167 110.748 55.15C112.081 55.8167 113.665 56.15 115.498 56.15C117.931 56.15 119.848 55.5 121.248 54.2C122.681 52.9333 123.398 51.2167 123.398 49.05V43.15L124.198 37.8L123.398 32.5V26.25H127.898V49.05C127.898 51.3167 127.365 53.3 126.298 55C125.265 56.7 123.798 58.0333 121.898 59C120.031 59.9667 117.865 60.45 115.398 60.45ZM115.398 49.6C113.231 49.6 111.281 49.0833 109.548 48.05C107.848 47.0167 106.498 45.6 105.498 43.8C104.498 41.9667 103.998 39.9167 103.998 37.65C103.998 35.3833 104.498 33.3667 105.498 31.6C106.498 29.8 107.848 28.3833 109.548 27.35C111.281 26.2833 113.231 25.75 115.398 25.75C117.265 25.75 118.915 26.1167 120.348 26.85C121.781 27.5833 122.915 28.6167 123.748 29.95C124.615 31.25 125.081 32.7833 125.148 34.55V40.85C125.048 42.5833 124.565 44.1167 123.698 45.45C122.865 46.75 121.731 47.7667 120.298 48.5C118.865 49.2333 117.231 49.6 115.398 49.6ZM116.298 45.35C117.765 45.35 119.048 45.0333 120.148 44.4C121.281 43.7667 122.148 42.8833 122.748 41.75C123.348 40.5833 123.648 39.2333 123.648 37.7C123.648 36.1667 123.331 34.8333 122.698 33.7C122.098 32.5333 121.248 31.6333 120.148 31C119.048 30.3333 117.748 30 116.248 30C114.748 30 113.431 30.3333 112.298 31C111.165 31.6333 110.265 32.5333 109.598 33.7C108.965 34.8333 108.648 36.15 108.648 37.65C108.648 39.15 108.965 40.4833 109.598 41.65C110.265 42.8167 111.165 43.7333 112.298 44.4C113.465 45.0333 114.798 45.35 116.298 45.35ZM137.053 50V26.25H141.553V50H137.053ZM139.303 21.5C138.47 21.5 137.786 21.2333 137.253 20.7C136.72 20.1333 136.453 19.4333 136.453 18.6C136.453 17.8 136.72 17.1333 137.253 16.6C137.786 16.0333 138.47 15.75 139.303 15.75C140.136 15.75 140.82 16.0333 141.353 16.6C141.886 17.1333 142.153 17.8 142.153 18.6C142.153 19.4333 141.886 20.1333 141.353 20.7C140.82 21.2333 140.136 21.5 139.303 21.5ZM154.335 50V16.3H158.835V50H154.335ZM148.485 30.35V26.25H178.835V30.35H148.485ZM168.485 50V16.3H172.985V50H168.485ZM195.121 50.5C192.954 50.5 190.987 49.9667 189.221 48.9C187.454 47.8 186.054 46.3167 185.021 44.45C184.021 42.5833 183.521 40.4833 183.521 38.15C183.521 35.8167 184.021 33.7167 185.021 31.85C186.054 29.9833 187.437 28.5 189.171 27.4C190.937 26.3 192.921 25.75 195.121 25.75C196.921 25.75 198.521 26.1333 199.921 26.9C201.354 27.6333 202.504 28.6667 203.371 30C204.237 31.3 204.721 32.8167 204.821 34.55V41.7C204.721 43.4 204.237 44.9167 203.371 46.25C202.537 47.5833 201.404 48.6333 199.971 49.4C198.571 50.1333 196.954 50.5 195.121 50.5ZM195.871 46.25C198.104 46.25 199.904 45.5 201.271 44C202.637 42.4667 203.321 40.5167 203.321 38.15C203.321 36.5167 203.004 35.1 202.371 33.9C201.771 32.6667 200.904 31.7167 199.771 31.05C198.637 30.35 197.321 30 195.821 30C194.321 30 192.987 30.35 191.821 31.05C190.687 31.75 189.787 32.7167 189.121 33.95C188.487 35.15 188.171 36.5333 188.171 38.1C188.171 39.7 188.487 41.1167 189.121 42.35C189.787 43.55 190.704 44.5 191.871 45.2C193.037 45.9 194.371 46.25 195.871 46.25ZM203.021 50V43.6L203.871 37.8L203.021 32.05V26.25H207.571V50H203.021Z" fill="black"/>
<path d="M253.532 145.45C251.999 145.45 250.716 145.2 249.682 144.7C248.616 144.2 247.666 143.483 246.832 142.55L249.732 139.6C250.199 140.167 250.716 140.583 251.282 140.85C251.816 141.117 252.466 141.25 253.232 141.25C254.232 141.25 255.099 140.933 255.832 140.3C256.566 139.7 256.932 138.783 256.932 137.55V111.25H261.432V137.5C261.432 139.233 261.066 140.683 260.332 141.85C259.599 143.017 258.632 143.9 257.432 144.5C256.232 145.133 254.932 145.45 253.532 145.45ZM259.232 106.5C258.432 106.5 257.766 106.233 257.232 105.7C256.699 105.133 256.432 104.433 256.432 103.6C256.432 102.8 256.699 102.133 257.232 101.6C257.766 101.033 258.432 100.75 259.232 100.75C260.066 100.75 260.749 101.033 261.282 101.6C261.816 102.133 262.082 102.8 262.082 103.6C262.082 104.433 261.816 105.133 261.282 105.7C260.749 106.233 260.066 106.5 259.232 106.5ZM280.656 135.5C278.489 135.5 276.523 134.967 274.756 133.9C272.989 132.8 271.589 131.317 270.556 129.45C269.556 127.583 269.056 125.483 269.056 123.15C269.056 120.817 269.556 118.717 270.556 116.85C271.589 114.983 272.973 113.5 274.706 112.4C276.473 111.3 278.456 110.75 280.656 110.75C282.456 110.75 284.056 111.133 285.456 111.9C286.889 112.633 288.039 113.667 288.906 115C289.773 116.3 290.256 117.817 290.356 119.55V126.7C290.256 128.4 289.773 129.917 288.906 131.25C288.073 132.583 286.939 133.633 285.506 134.4C284.106 135.133 282.489 135.5 280.656 135.5ZM281.406 131.25C283.639 131.25 285.439 130.5 286.806 129C288.173 127.467 288.856 125.517 288.856 123.15C288.856 121.517 288.539 120.1 287.906 118.9C287.306 117.667 286.439 116.717 285.306 116.05C284.173 115.35 282.856 115 281.356 115C279.856 115 278.523 115.35 277.356 116.05C276.223 116.75 275.323 117.717 274.656 118.95C274.023 120.15 273.706 121.533 273.706 123.1C273.706 124.7 274.023 126.117 274.656 127.35C275.323 128.55 276.239 129.5 277.406 130.2C278.573 130.9 279.906 131.25 281.406 131.25ZM288.556 135V128.6L289.406 122.8L288.556 117.05V111.25H293.106V135H288.556ZM312.207 135.5C310.007 135.5 308.041 134.967 306.307 133.9C304.574 132.8 303.191 131.317 302.157 129.45C301.157 127.583 300.657 125.483 300.657 123.15C300.657 120.817 301.157 118.717 302.157 116.85C303.191 114.983 304.574 113.5 306.307 112.4C308.041 111.3 310.007 110.75 312.207 110.75C313.974 110.75 315.574 111.133 317.007 111.9C318.441 112.633 319.591 113.667 320.457 115C321.357 116.3 321.857 117.817 321.957 119.55V126.7C321.857 128.4 321.374 129.917 320.507 131.25C319.641 132.583 318.491 133.633 317.057 134.4C315.624 135.133 314.007 135.5 312.207 135.5ZM312.957 131.25C314.457 131.25 315.757 130.9 316.857 130.2C317.991 129.5 318.874 128.55 319.507 127.35C320.141 126.117 320.457 124.717 320.457 123.15C320.457 121.517 320.124 120.1 319.457 118.9C318.824 117.7 317.941 116.75 316.807 116.05C315.707 115.35 314.407 115 312.907 115C311.407 115 310.091 115.35 308.957 116.05C307.824 116.75 306.924 117.717 306.257 118.95C305.624 120.15 305.307 121.533 305.307 123.1C305.307 124.7 305.624 126.117 306.257 127.35C306.924 128.55 307.824 129.5 308.957 130.2C310.124 130.9 311.457 131.25 312.957 131.25ZM324.707 135H320.157V128.6L321.007 122.8L320.157 117.05V99.3H324.707V135ZM344.759 135.5C342.392 135.5 340.259 134.967 338.359 133.9C336.459 132.8 334.959 131.317 333.859 129.45C332.759 127.583 332.209 125.467 332.209 123.1C332.209 120.767 332.742 118.667 333.809 116.8C334.909 114.933 336.376 113.467 338.209 112.4C340.076 111.3 342.159 110.75 344.459 110.75C346.659 110.75 348.592 111.25 350.259 112.25C351.959 113.25 353.276 114.633 354.209 116.4C355.176 118.167 355.659 120.167 355.659 122.4C355.659 122.733 355.642 123.1 355.609 123.5C355.576 123.867 355.509 124.3 355.409 124.8H335.359V121.05H353.009L351.359 122.5C351.359 120.9 351.076 119.55 350.509 118.45C349.942 117.317 349.142 116.45 348.109 115.85C347.076 115.217 345.826 114.9 344.359 114.9C342.826 114.9 341.476 115.233 340.309 115.9C339.142 116.567 338.242 117.5 337.609 118.7C336.976 119.9 336.659 121.317 336.659 122.95C336.659 124.617 336.992 126.083 337.659 127.35C338.326 128.583 339.276 129.55 340.509 130.25C341.742 130.917 343.159 131.25 344.759 131.25C346.092 131.25 347.309 131.017 348.409 130.55C349.542 130.083 350.509 129.383 351.309 128.45L354.209 131.4C353.076 132.733 351.676 133.75 350.009 134.45C348.376 135.15 346.626 135.5 344.759 135.5ZM379.866 135V121.15C379.866 119.35 379.299 117.867 378.166 116.7C377.032 115.533 375.566 114.95 373.766 114.95C372.566 114.95 371.499 115.217 370.566 115.75C369.632 116.283 368.899 117.017 368.366 117.95C367.832 118.883 367.566 119.95 367.566 121.15L365.716 120.1C365.716 118.3 366.116 116.7 366.916 115.3C367.716 113.9 368.832 112.8 370.266 112C371.699 111.167 373.316 110.75 375.116 110.75C376.916 110.75 378.499 111.2 379.866 112.1C381.266 113 382.366 114.183 383.166 115.65C383.966 117.083 384.366 118.617 384.366 120.25V135H379.866ZM363.066 135V111.25H367.566V135H363.066ZM396.065 135V107.7C396.065 105.933 396.449 104.4 397.215 103.1C397.982 101.767 399.032 100.717 400.365 99.95C401.732 99.1833 403.315 98.8 405.115 98.8C406.482 98.8 407.665 99.0333 408.665 99.5C409.665 99.9667 410.582 100.65 411.415 101.55L408.465 104.45C408.032 103.983 407.549 103.633 407.015 103.4C406.482 103.133 405.832 103 405.065 103C403.632 103 402.515 103.417 401.715 104.25C400.949 105.083 400.565 106.233 400.565 107.7V135H396.065ZM390.215 115.35V111.25H408.115V115.35H390.215ZM424.769 135.5C422.402 135.5 420.269 134.967 418.369 133.9C416.469 132.8 414.969 131.317 413.869 129.45C412.769 127.583 412.219 125.467 412.219 123.1C412.219 120.767 412.752 118.667 413.819 116.8C414.919 114.933 416.385 113.467 418.219 112.4C420.085 111.3 422.169 110.75 424.469 110.75C426.669 110.75 428.602 111.25 430.269 112.25C431.969 113.25 433.285 114.633 434.219 116.4C435.185 118.167 435.669 120.167 435.669 122.4C435.669 122.733 435.652 123.1 435.619 123.5C435.585 123.867 435.519 124.3 435.419 124.8H415.369V121.05H433.019L431.369 122.5C431.369 120.9 431.085 119.55 430.519 118.45C429.952 117.317 429.152 116.45 428.119 115.85C427.085 115.217 425.835 114.9 424.369 114.9C422.835 114.9 421.485 115.233 420.319 115.9C419.152 116.567 418.252 117.5 417.619 118.7C416.985 119.9 416.669 121.317 416.669 122.95C416.669 124.617 417.002 126.083 417.669 127.35C418.335 128.583 419.285 129.55 420.519 130.25C421.752 130.917 423.169 131.25 424.769 131.25C426.102 131.25 427.319 131.017 428.419 130.55C429.552 130.083 430.519 129.383 431.319 128.45L434.219 131.4C433.085 132.733 431.685 133.75 430.019 134.45C428.385 135.15 426.635 135.5 424.769 135.5ZM443.075 135V99.3H447.575V135H443.075ZM460.309 135V101.3H464.809V135H460.309ZM454.459 115.35V111.25H470.659V115.35H454.459Z" fill="black"/>
<path d="M388 18.0105C388 18.0105 339.927 16.7399 290.836 42.1522C258.899 58.6847 242 79 242 79L388 79" stroke="black" stroke-width="4"/>
<path d="M388.758 42.0062C388.758 42.0062 357.397 41.2407 325.373 56.5506C304.539 66.5107 293.515 78.7499 293.515 78.7499H388.758" stroke="black" stroke-width="4"/>
<path d="M388 42.0062C388 42.0062 419.36 41.2407 451.384 56.5506C472.218 66.5107 483.243 78.7499 483.243 78.7499H388" stroke="black" stroke-width="4"/>
<path d="M388.758 65.0021C388.758 65.0021 373.176 64.7201 357.265 70.3613C346.913 74.0313 341.436 78.541 341.436 78.541H388.758" stroke="black" stroke-width="4"/>
<path d="M386 65.0023C386 65.0023 401.582 64.7202 417.493 70.3614C427.844 74.0314 433.322 78.5411 433.322 78.5411H386" stroke="black" stroke-width="4"/>
<line x1="388" y1="16" x2="388" y2="41" stroke="black" stroke-width="4"/>
<path d="M96.0001 139.989C96.0001 139.989 144.073 141.26 193.164 115.848C225.101 99.3153 242 79 242 79L96.0001 79" stroke="black" stroke-width="4"/>
<path d="M95.2426 115.994C95.2426 115.994 126.603 116.759 158.627 101.45C179.461 91.4894 190.485 79.2502 190.485 79.2502H95.2426" stroke="black" stroke-width="4"/>
<path d="M95.2426 115.994C95.2426 115.994 63.8822 116.759 31.8581 101.45C11.0242 91.4894 0 79.2502 0 79.2502H95.2426" stroke="black" stroke-width="4"/>
<path d="M95.2426 92.9979C95.2426 92.9979 110.824 93.2799 126.736 87.6387C137.087 83.9687 142.564 79.459 142.564 79.459H95.2426" stroke="black" stroke-width="4"/>
<path d="M95.2426 92.9979C95.2426 92.9979 79.6611 93.2799 63.7497 87.6387C53.3983 83.9687 47.9208 79.459 47.9208 79.459H95.2426" stroke="black" stroke-width="4"/>
<line x1="96.0001" y1="142" x2="96.0001" y2="117" stroke="black" stroke-width="4"/>
</svg>
